<?xml version="1.0" encoding="UTF-8"?>
<!-- Uploaded to: SVG Find, www.svgrepo.com, Generator: SVG Find Mixer Tools -->
<svg width="800px" height="800px" version="1.1" viewBox="144 144 512 512" xmlns="http://www.w3.org/2000/svg">
 <defs>
  <clipPath id="a">
   <path d="m148.09 253h503.81v294h-503.81z"/>
  </clipPath>
 </defs>
 <g clip-path="url(#a)">
  <path d="m603.15 318.74c-8.9609 0-16.25-7.293-16.25-16.25l-0.003907-48.758h-406.3v48.754l-32.504 0.003906v97.512h32.504v48.754h-32.504v65.008h32.504v32.504h471.3v-227.53zm-211.28-48.754h16.25v32.504h-16.25zm32.504 0h16.25v32.504h-16.25zm32.504 0h16.25v32.504h-16.25zm32.504 0h16.25v32.504h-16.25zm32.504 0h16.25v32.504h-16.25zm-357.54 48.754h48.754v65.008h-48.754zm0 146.27h48.754v32.504h-48.754zm292.54 65.008h-16.25v-16.25h16.25zm65.008 0h-16.25v-16.25h16.25zm65.008 0h-16.25v-16.25h16.25zm16.254 0v-32.504h-48.754v32.504h-16.25v-32.504h-48.754v32.504h-16.25v-32.504h-48.754v32.504h-32.504v-32.504h-16.25v32.504h-16.25v-32.504h-16.25v32.504h-16.25v-32.504h-16.25v32.504h-16.25v-32.504h-16.25v32.504h-16.25v-32.504h-16.277v32.504h-48.758v-16.25h32.504v-65.008l-32.504-0.003906v-48.754h32.504v-97.512h-32.504v-32.504h178.77v48.754h178.77l0.003906-48.754h16.25v32.504c0 17.922 14.582 32.504 32.504 32.504h32.504v16.25h-65.008v113.76h65.008v65.008zm-16.254-97.512h48.754v16.25h-48.754zm0-16.254v-16.25h48.754v16.25zm0-32.504v-16.25h48.754v16.25z"/>
 </g>
 <path d="m302.49 416.25c-17.922 0-32.504 14.582-32.504 32.504s14.582 32.504 32.504 32.504 32.504-14.582 32.504-32.504-14.582-32.504-32.504-32.504zm0 48.758c-8.9609 0-16.25-7.293-16.25-16.25 0-8.9609 7.293-16.25 16.25-16.25 8.9609 0 16.25 7.293 16.25 16.25 0 8.957-7.2891 16.25-16.25 16.25z"/>
 <path d="m245.61 400h113.76v-48.758h-113.76zm16.25-32.504h81.258v16.25h-81.258z"/>
 <path d="m245.61 334.99h113.76v-48.758h-113.76zm16.25-32.504h81.258v16.25h-81.258z"/>
 <path d="m538.14 400v-16.25h-16.25v16.25h-16.25v-16.25h-16.25v16.25h-16.25v-16.25h-16.25v16.25h-16.25v-16.25h-16.25v16.25h-16.25v-16.25h-16.25v16.25c-8.9609 0-16.25 7.293-16.25 16.25v32.504c0 8.9609 7.293 16.25 16.25 16.25v16.25h16.25v-16.25h16.25v16.25h16.25v-16.25h16.25v16.25h16.25v-16.25h16.25v16.25h16.25v-16.25h16.25v16.25h16.25v-16.25c8.9609 0 16.25-7.293 16.25-16.25v-32.504c0-8.9609-7.2891-16.25-16.25-16.25zm0 48.754h-146.27v-32.504h146.27l0.011719 32.504h-0.007813z"/>
 <path d="m381.37 329.25-11.492 11.492 18.633 18.629h165.88v-16.25h-159.15z"/>
</svg>